<svg width="24" height="24" viewBox="0 0 24 24" fill="none" xmlns="http://www.w3.org/2000/svg">
<path d="M19.5001 7H18.2501C17.2813 7 16.5001 7.8125 16.5001 8.75V10H13.1563L9.90631 4.90625C9.59381 4.4375 9.12506 4.125 8.59381 4.03125C8.06256 3.96875 7.50006 4.09375 7.09381 4.40625C5.28131 5.875 3.96881 8.34375 4.00006 10.75C4.00006 12.3438 4.53131 13.875 5.87506 15.0938C4.78131 15.375 4.00006 16.3438 4.00006 17.5C4.00006 18.9062 5.09381 20 6.50006 20C7.87506 20 9.00006 18.9062 9.00006 17.5C9.00006 17.25 8.93756 16.9688 8.84381 16.7188C9.53131 16.9062 10.2501 17 11.0001 17C11.7188 17 12.4376 16.9062 13.1251 16.7188C13.0313 16.9688 13.0001 17.25 13.0001 17.5C13.0001 18.9062 14.0938 20 15.5001 20C16.8751 20 18.0001 18.9062 18.0001 17.5C18.0001 16.3438 17.1876 15.375 16.0938 15.0938C17.2813 14.0312 18.0001 12.5938 18.0001 11V8.75C18.0001 8.625 18.0938 8.5 18.2501 8.5H19.5001C19.7501 8.5 20.0001 8.28125 20.0001 8V7.5C20.0001 7.25 19.7501 7 19.5001 7ZM8.03131 5.59375C8.15631 5.5 8.28131 5.5 8.34381 5.53125C8.46881 5.53125 8.56256 5.59375 8.62506 5.6875L11.3751 10H5.53131C5.71881 8.3125 6.62506 6.71875 8.03131 5.59375ZM6.50006 18.5C5.93756 18.5 5.50006 18.0625 5.50006 17.5C5.50006 16.9688 5.93756 16.5 6.50006 16.5C7.03131 16.5 7.50006 16.9688 7.50006 17.5C7.50006 18.0625 7.03131 18.5 6.50006 18.5ZM16.5001 17.5C16.5001 18.0625 16.0313 18.5 15.5001 18.5C14.9376 18.5 14.5001 18.0625 14.5001 17.5C14.5001 16.9688 14.9376 16.5 15.5001 16.5C16.0313 16.5 16.5001 16.9688 16.5001 17.5ZM11.0001 15.5C8.15631 15.5 5.81256 13.75 5.53131 11.5H16.4376C16.1563 13.75 13.8126 15.5 11.0001 15.5Z" fill="#111827"/>
</svg>
