<svg width="24" height="24" viewBox="0 0 24 24" fill="none" xmlns="http://www.w3.org/2000/svg">
<path d="M19.9096 4.27453C17.6435 2.36335 14.1661 2.63638 12.0171 4.85958C9.82908 2.63638 6.35167 2.36335 4.0855 4.27453C1.1551 6.73175 1.58489 10.7491 3.69478 12.8943L10.5324 19.8759C10.9231 20.266 11.431 20.5 12.0171 20.5C12.5641 20.5 13.0721 20.266 13.4628 19.8759L20.3394 12.8943C22.4103 10.7491 22.84 6.73175 19.9096 4.27453ZM18.9719 11.5682L12.1343 18.5498C12.0562 18.6278 11.978 18.6278 11.8608 18.5498L5.02322 11.5682C3.57756 10.1251 3.30406 7.39481 5.29673 5.71766C6.82053 4.43054 9.16485 4.62556 10.6496 6.10769L12.0171 7.51182L13.3846 6.10769C14.8303 4.62556 17.1746 4.43054 18.6984 5.67865C20.6911 7.39481 20.4176 10.1251 18.9719 11.5682Z" fill="#111827"/>
</svg>
