<svg width="24" height="24" viewBox="0 0 24 24" fill="none" xmlns="http://www.w3.org/2000/svg">
<path d="M21.9375 7.78125C21.8125 7.5 21.5937 7.25 21.3125 7.09375L15.125 4C14.8125 4.4375 14.2187 5.59375 12 5.59375C9.71873 5.59375 9.12498 4.40625 8.84373 4L2.65623 7.09375C2.37498 7.25 2.15623 7.5 2.06248 7.78125C1.93748 8.09375 1.96873 8.4375 2.12498 8.71875L3.78123 12.0312C4.06248 12.6562 4.81248 12.875 5.37498 12.5938L6.12498 12.25C6.31248 12.1562 6.49998 12.2812 6.49998 12.4688V18.25C6.49998 19.2188 7.28123 20 8.24998 20H15.75C16.7187 20 17.5 19.2188 17.5 18.25V12.4688C17.5 12.2812 17.6875 12.1562 17.8437 12.25L18.5937 12.5938C19.1875 12.9062 19.9062 12.6562 20.2187 12.0625L21.875 8.71875C22 8.4375 22.0312 8.09375 21.9375 7.78125ZM19 11.125L16.6875 10.0312C16.375 9.875 16 10.125 16 10.5V18.25C16 18.4062 15.875 18.5 15.75 18.5H8.24998C8.09373 18.5 7.99998 18.4062 7.99998 18.25V10.5C7.99998 10.125 7.59373 9.875 7.28123 10.0312L4.99998 11.125L3.59373 8.3125L8.43748 5.90625C9.28123 6.65625 10.5625 7.09375 12 7.09375C13.4062 7.09375 14.6875 6.65625 15.5312 5.90625L20.375 8.3125L19 11.125Z" fill="#111827"/>
</svg>
