<svg width="24" height="24" viewBox="0 0 24 24" fill="none" xmlns="http://www.w3.org/2000/svg">
<path d="M20.8125 11.75L13.0938 5.40625C12.8125 5.15625 12.4062 5.03125 12 5.03125C11.5625 5.03125 11.1562 5.15625 10.875 5.40625L3.15625 11.75C3.0625 11.8438 3 11.9688 3 12.125C3 12.25 3.03125 12.375 3.09375 12.4375L3.4375 12.8438C3.5 12.9375 3.65625 13 3.8125 13C3.9375 13 4.03125 12.9688 4.125 12.9062L5 12.1875V18C5 18.5625 5.4375 19 6 19H10C10.5312 19 10.9688 18.5625 11 18V14.75H13V18C13 18.5625 13.4375 19 14 19H18C18.5312 19 18.9688 18.5625 19 18.0312V12.1875L19.8438 12.9062C19.9375 12.9688 20.0312 13.0312 20.1562 13.0312C20.3125 13.0312 20.4688 12.9375 20.5625 12.8438L20.875 12.4375C20.9375 12.375 21 12.25 21 12.125C21 11.9688 20.9062 11.8438 20.8125 11.75ZM17.4688 17.5H14.5V14.25C14.4688 13.7188 14.0312 13.2812 13.5 13.25H10.5C9.9375 13.2812 9.5 13.7188 9.5 14.25V17.5H6.5V10.9688L12 6.4375L17.5 10.9688L17.4688 17.5Z" fill="#111827"/>
</svg>
