<svg width="24" height="24" viewBox="0 0 24 24" fill="none" xmlns="http://www.w3.org/2000/svg">
<path d="M18.5 8H16V6.5C16 5.6875 15.3125 5 14.5 5H9.5C8.65625 5 8 5.6875 8 6.5V8H5.5C4.65625 8 4 8.6875 4 9.5V17.5C4 18.3438 4.65625 19 5.5 19H18.5C19.3125 19 20 18.3438 20 17.5V9.5C20 8.6875 19.3125 8 18.5 8ZM9.5 6.5H14.5V8H9.5V6.5ZM5.6875 9.5H18.3125C18.4062 9.5 18.5 9.59375 18.5 9.6875V12H5.5V9.6875C5.5 9.59375 5.5625 9.5 5.6875 9.5ZM18.3125 17.5H5.6875C5.5625 17.5 5.5 17.4375 5.5 17.3125V13.5H10V14.25C10 14.6875 10.3125 15 10.75 15H13.25C13.6562 15 14 14.6875 14 14.25V13.5H18.5V17.3125C18.5 17.4375 18.4062 17.5 18.3125 17.5Z" fill="#111827"/>
</svg>
