<svg width="24" height="24" viewBox="0 0 24 24" fill="none" xmlns="http://www.w3.org/2000/svg">
<path d="M18.6875 10.5625L17.5 7.59375C17.125 6.625 16.1875 6 15.1875 6H9.78125C8.78125 6 7.84375 6.625 7.46875 7.59375L6.28125 10.5625C5.5 11.0938 5 12 5 13V17.25C5 17.6875 5.3125 18 5.75 18H6.25C6.65625 18 7 17.6875 7 17.25V16.5H18V17.25C18 17.6875 18.3125 18 18.75 18H19.25C19.6562 18 20 17.6875 20 17.25V13C20 12 19.4688 11.0938 18.6875 10.5625ZM8.875 8.15625C9.03125 7.75 9.375 7.5 9.78125 7.5H15.1875C15.5938 7.5 15.9688 7.75 16.0938 8.15625L16.875 10H8.09375L8.875 8.15625ZM18.5 14.5C18.5 14.7812 18.25 15 18 15H7C6.71875 15 6.5 14.7812 6.5 14.5V13C6.5 12.1875 7.15625 11.5 8 11.5H17C17.8125 11.5 18.5 12.1875 18.5 13V14.5ZM8.5 12.25C7.875 12.25 7.5 12.6562 7.5 13.25C7.5 13.875 7.875 14.25 8.5 14.25C9.09375 14.25 10 14.3438 10 13.75C10 13.1562 9.09375 12.25 8.5 12.25ZM16.5 12.25C15.875 12.25 15 13.1562 15 13.75C15 14.3438 15.875 14.25 16.5 14.25C17.0938 14.25 17.5 13.875 17.5 13.25C17.5 12.6562 17.0938 12.25 16.5 12.25Z" fill="#111827"/>
</svg>
