<svg width="24" height="24" viewBox="0 0 24 24" fill="none" xmlns="http://www.w3.org/2000/svg">
<path d="M18.25 6.25H17V5.5C17 4.6875 16.3125 4 15.5 4H5.5C4.65625 4 4 4.6875 4 5.5V8.5C4 9.34375 4.65625 10 5.5 10H15.5C16.3125 10 17 9.34375 17 8.5V7.75H18.25C18.375 7.75 18.5 7.875 18.5 8V11C18.5 11.1562 18.375 11.25 18.25 11.25H12C11.0312 11.25 10.25 12.0625 10.25 13V14H10C9.4375 14 9 14.4688 9 15V19C9 19.5625 9.4375 20 10 20H12C12.5312 20 13 19.5625 13 19V15C13 14.4688 12.5312 14 12 14H11.75V13C11.75 12.875 11.8438 12.75 12 12.75H18.25C19.1875 12.75 20 11.9688 20 11V8C20 7.0625 19.1875 6.25 18.25 6.25ZM15.5 8.5H5.5V5.5H15.5V8.5ZM11.5 18.5H10.5V15.5H11.5V18.5Z" fill="#111827"/>
</svg>
