<svg width="24" height="24" viewBox="0 0 24 24" fill="none" xmlns="http://www.w3.org/2000/svg">
<path d="M19.8438 7.6875C19.75 7.3125 19.4688 7 19.0625 6.90625C18.6875 6.78125 18.2812 6.90625 18.0312 7.15625L16.1875 9L15.1562 8.84375L15 7.8125L16.8438 6C17.125 5.71875 17.2188 5.3125 17.125 4.9375C17 4.5625 16.7188 4.25 16.3125 4.15625C14.6562 3.75 12.9375 4.21875 11.75 5.4375C10.5625 6.59375 10.0938 8.28125 10.4688 9.90625L4.75 15.6562C4.25 16.125 4 16.7812 4 17.4688C4 18.125 4.25 18.7812 4.75 19.25C5.21875 19.75 5.875 20 6.5625 20C7.21875 20 7.875 19.75 8.34375 19.25L14.0938 13.5312C15.7188 13.9062 17.375 13.4375 18.5625 12.25C19.75 11.0625 20.25 9.3125 19.8438 7.6875ZM17.5 11.1875C16.625 12.0938 15.3125 12.375 14.0938 12L13.6562 11.8438L7.3125 18.2188C6.90625 18.5938 6.1875 18.5938 5.78125 18.2188C5.59375 18 5.5 17.75 5.5 17.4688C5.5 17.1562 5.59375 16.9062 5.78125 16.6875L12.1562 10.3438L12.0312 9.90625C11.625 8.6875 11.9062 7.375 12.8125 6.5C13.4375 5.84375 14.2812 5.53125 15.1562 5.53125H15.1875L13.4062 7.3125L13.875 10.125L16.6875 10.625L18.5 8.8125C18.5 9.6875 18.1562 10.5625 17.5 11.1875ZM6.75 16.7812C6.46875 16.7812 6.25 17 6.25 17.2812C6.25 17.5312 6.46875 17.7812 6.75 17.7812C7 17.7812 7.25 17.5312 7.25 17.2812C7.25 17 7 16.7812 6.75 16.7812Z" fill="#111827"/>
</svg>
