<svg width="24" height="24" viewBox="0 0 24 24" fill="none" xmlns="http://www.w3.org/2000/svg">
<path d="M6.31267 12.9688C7.21892 12.75 7.71892 11.7188 7.37517 10.625C7.09392 9.65625 6.28142 9 5.46892 9C5.37517 9 5.25017 9.03125 5.15642 9.0625C4.25017 9.28125 3.75017 10.3125 4.09392 11.4062C4.37517 12.3438 5.18767 13 6.00017 13C6.09392 13 6.21892 13 6.31267 12.9688ZM5.28142 11.0625C5.18767 10.75 5.25017 10.5 5.31267 10.375C5.37517 10.2812 5.40642 10.2812 5.43767 10.2812L5.46892 10.25C5.68767 10.25 6.03142 10.5 6.18767 10.9688C6.28142 11.2812 6.21892 11.5312 6.15642 11.6562C6.09392 11.75 6.06267 11.75 6.00017 11.75C5.78142 11.75 5.43767 11.5312 5.28142 11.0625ZM13.9377 9.96875C14.0627 10 14.1564 10 14.2814 10C15.1564 10 16.0314 9.1875 16.3752 7.96875C16.7189 6.625 16.2502 5.3125 15.2814 5.0625C15.1877 5.03125 15.0627 5 14.9377 5C14.0627 5 13.1877 5.84375 12.8439 7.0625C12.5002 8.40625 12.9689 9.71875 13.9377 9.96875ZM14.0627 7.375C14.2502 6.65625 14.7502 6.25 14.9377 6.25L14.9689 6.28125C15.0002 6.28125 15.0314 6.3125 15.0939 6.40625C15.2189 6.625 15.3127 7.09375 15.1564 7.65625C14.9689 8.375 14.4689 8.75 14.2502 8.75C14.2189 8.75 14.1877 8.71875 14.1252 8.625C14.0002 8.40625 13.9064 7.9375 14.0627 7.375ZM18.8127 9.0625C18.7189 9.03125 18.5939 9 18.5002 9C17.6877 9 16.8752 9.65625 16.5939 10.625C16.2502 11.7188 16.7502 12.75 17.6564 12.9688C17.7502 13 17.8752 13 17.9689 13C18.7814 13 19.5939 12.3438 19.8752 11.4062C20.2189 10.3125 19.7189 9.28125 18.8127 9.0625ZM18.6877 11.0625C18.5314 11.5 18.1877 11.75 17.9377 11.75C17.9064 11.75 17.8752 11.75 17.8127 11.6562C17.7502 11.5312 17.6877 11.2812 17.7814 10.9688C17.9377 10.5 18.2814 10.25 18.5002 10.25L18.5314 10.2812C18.5627 10.2812 18.5939 10.2812 18.6564 10.375C18.7189 10.5 18.7814 10.75 18.6877 11.0625ZM9.68767 10C9.81267 10 9.90642 10 10.0314 9.96875C11.0002 9.71875 11.4689 8.40625 11.1252 7.0625C10.7814 5.84375 9.90642 5 9.03142 5C8.90642 5 8.81267 5.03125 8.68767 5.0625C7.71892 5.3125 7.25017 6.625 7.59392 7.96875C7.93767 9.1875 8.81267 10 9.68767 10ZM8.87517 6.40625C8.93767 6.3125 8.96892 6.28125 9.00017 6.28125L9.03142 6.25C9.21892 6.25 9.71892 6.65625 9.90642 7.375C10.0627 7.9375 9.96892 8.40625 9.84392 8.625C9.78142 8.71875 9.75017 8.75 9.68767 8.75C9.50017 8.75 9.00017 8.375 8.81267 7.65625C8.65642 7.09375 8.75017 6.625 8.87517 6.40625ZM12.0002 11C9.50017 11 6.00017 14.8438 6.00017 17.2812C6.00017 18.375 6.81267 19 8.21892 19C9.75017 19 10.7502 18.2188 12.0002 18.2188C13.2189 18.2188 14.2189 19 15.7502 19C17.1564 19 18.0002 18.375 18.0002 17.2812C18.0002 14.8438 14.4689 11 12.0002 11ZM16.4689 17.375C16.4377 17.4062 16.2502 17.5 15.7502 17.5C15.1877 17.5 14.6877 17.3438 14.1252 17.1562C13.5314 16.9688 12.8127 16.7188 12.0002 16.7188C11.1564 16.7188 10.4689 16.9688 9.84392 17.1562C9.28142 17.3438 8.78142 17.5 8.21892 17.5C7.71892 17.5 7.53142 17.4062 7.50017 17.375C7.50017 17.375 7.50017 17.3438 7.50017 17.2812C7.50017 15.5938 10.3752 12.5 12.0002 12.5C13.5939 12.5 16.5002 15.5938 16.5002 17.2812C16.5002 17.3438 16.4689 17.375 16.4689 17.375Z" fill="#111827"/>
</svg>
